<?xml version="1.0" encoding="UTF-8"?>
<svg version="1.1" xmlns="http://www.w3.org/2000/svg" width="1233" height="257">
<path d="M0 0 C406.89 0 813.78 0 1233 0 C1233 84.81 1233 169.62 1233 257 C826.11 257 419.22 257 0 257 C0 172.19 0 87.38 0 0 Z " fill="#FEFEFE" transform="translate(0,0)"/>
<path d="M0 0 C0.76645151 -0.00407553 1.53290302 -0.00815105 2.32258034 -0.01235008 C6.37935731 -0.03308286 10.43610173 -0.04743948 14.49291992 -0.05688477 C18.63686646 -0.06792719 22.78027294 -0.10233899 26.92402935 -0.14205647 C30.15266274 -0.16845088 33.3811716 -0.17659653 36.60990334 -0.18016624 C38.13543155 -0.18497286 39.66095653 -0.19641237 41.18637657 -0.21520424 C59.02657845 -0.42134652 75.29098842 3.4126055 88.73046875 15.9609375 C92.39676531 19.99386371 95.11971759 24.51345595 97.80078125 29.23828125 C98.37828125 30.20765625 98.95578125 31.17703125 99.55078125 32.17578125 C104.21669119 43.6072606 104.32903374 54.72952747 104.30175781 66.91796875 C104.30078757 69.96841515 104.34247189 73.01632248 104.38671875 76.06640625 C104.5002162 94.77152682 100.99210818 111.80603249 87.80078125 125.92578125 C77.91034006 135.33179267 65.568489 142.33729267 51.67578125 142.42578125 C50.05026721 142.37850176 48.42484455 142.32164572 46.80078125 142.23828125 C46.49140625 140.32015625 46.49140625 140.32015625 46.17578125 138.36328125 C44.92828909 132.66820835 42.22324767 127.92557221 38.80078125 123.23828125 C38.14078125 122.90828125 37.48078125 122.57828125 36.80078125 122.23828125 C36.80078125 121.57828125 36.80078125 120.91828125 36.80078125 120.23828125 C35.14539167 119.54408562 33.47442102 118.88724361 31.80078125 118.23828125 C30.84101631 117.86310364 30.84101631 117.86310364 29.86186218 117.48034668 C24.26392656 115.43798498 19.37672375 114.80981026 13.4453125 114.83203125 C12.14916267 114.81577698 12.14916267 114.81577698 10.826828 114.79919434 C8.08890245 114.76525011 5.35138833 114.74942063 2.61328125 114.73828125 C-16.59075071 114.65938641 -36.84034629 114.15278764 -51.6875 99.94140625 C-64.70535753 85.27529286 -68.29941387 67.66047317 -67.39013672 48.59960938 C-66.34111923 35.62506063 -60.82893366 22.61869709 -51.125 13.75390625 C-35.43199764 1.4032269 -19.18045074 0.08708929 0 0 Z " fill="#2563EB" transform="translate(77.19921875,10.76171875)"/>
<path d="M0 0 C13.49357262 2.24892877 24.52346967 8.83285906 33.03515625 19.56640625 C42.5755324 33.48198675 44.99240637 51.16615482 42.43359375 67.6484375 C41.7301707 70.80831698 40.91978033 73.8968159 40 77 C39.70996094 78.08667969 39.70996094 78.08667969 39.4140625 79.1953125 C35.88918812 90.50237707 26.59268592 100.19034081 16.3125 105.6875 C2.52505268 111.86361063 -9.32624295 112.5711023 -24.25 112.5625 C-27.20879041 112.56612834 -30.16700083 112.5758371 -33.12567139 112.60325623 C-34.9521358 112.6198255 -36.77879129 112.62309658 -38.60528564 112.61024475 C-47.75008749 112.68533632 -55.86354642 115.06497597 -62.59375 121.53125 C-67.99445699 127.35554186 -69.80333769 133.26011993 -71 141 C-86.50475344 140.72086369 -100.30129234 135.38457734 -111.75 124.75 C-123.32271093 112.34471993 -128.36035058 97.12205161 -128.23046875 80.453125 C-128.23001053 79.47889587 -128.22955231 78.50466675 -128.2290802 77.50091553 C-128.22607833 75.45714081 -128.21825463 73.41336795 -128.20581055 71.36962891 C-128.18747086 68.24503472 -128.1853018 65.12073636 -128.18554688 61.99609375 C-128.18063369 60.00260161 -128.17480624 58.00911147 -128.16796875 56.015625 C-128.16685593 55.08534485 -128.1657431 54.1550647 -128.16459656 53.19659424 C-128.1339365 49.00833804 -128.06621257 45.08191904 -127 41 C-122.69504985 40.90064912 -118.39071817 40.82830732 -114.08496094 40.78027344 C-112.62227748 40.76023668 -111.15967334 40.73299896 -109.69726562 40.69824219 C-107.5870399 40.64936775 -105.47787864 40.62695341 -103.3671875 40.609375 C-101.46622314 40.5779541 -101.46622314 40.5779541 -99.52685547 40.54589844 C-94.20065824 41.23167491 -91.17535994 43.66580764 -87.6875 47.625 C-84.61583419 51.94808522 -84.88313134 55.47252421 -84.9375 60.625 C-84.94201172 61.42679688 -84.94652344 62.22859375 -84.95117188 63.0546875 C-84.96296832 65.03649006 -84.98090395 67.01825433 -85 69 C-58.97683506 68.86107177 -39.18891491 66.12193789 -20 47 C-19.37480469 46.39800781 -18.74960938 45.79601562 -18.10546875 45.17578125 C-7.54892227 34.1903006 -3.4765829 20.62766273 -1 6 C-0.80277344 4.83597656 -0.60554688 3.67195313 -0.40234375 2.47265625 C-0.26957031 1.65667969 -0.13679688 0.84070313 0 0 Z " fill="#2663EB" transform="translate(195,98)"/>
<path d="M0 0 C59.02308917 0 59.02308917 0 68.2734375 8.96484375 C73.64875379 15.30090662 75.92606745 21.7106189 75.55078125 30.03125 C74.48587905 35.77114839 71.68115092 40.66908952 67.265625 44.5078125 C65.625 45.625 65.625 45.625 63 47 C64.94245644 48.29497096 66.90015107 49.56748654 68.875 50.8125 C75.43714198 55.40599938 80.44951157 61.3485347 83 69 C83.76662999 79.36835647 83.55422456 88.62835051 76.5625 96.875 C75.716875 97.57625 74.87125 98.2775 74 99 C73.236875 99.70125 72.47375 100.4025 71.6875 101.125 C52.27787891 114.66659611 17.11127047 108 0 108 C0 72.36 0 36.72 0 0 Z " fill="#2764EB" transform="translate(664,71)"/>
<path d="M0 0 C8.25 0 16.5 0 25 0 C25 36.3 25 72.6 25 110 C16.75 110 8.5 110 0 110 C-0.33 108.02 -0.66 106.04 -1 104 C-1.680625 104.598125 -2.36125 105.19625 -3.0625 105.8125 C-11.35728314 111.98946617 -20.04111697 112.17589628 -30 111 C-39.27523491 108.80824928 -47.8409844 103.40592564 -53.09179688 95.31835938 C-59.98843925 83.46435395 -62.13360782 70.21693344 -59.31640625 56.7265625 C-55.48531517 45.37635904 -47.4983758 36.74452938 -37 31.125 C-32.51262367 29.03545835 -28.94094076 28.23528289 -24 28 C-22.92105469 27.92458984 -22.92105469 27.92458984 -21.8203125 27.84765625 C-13.32286184 27.48011946 -7.62397876 29.70081699 -1 35 C-0.67 23.45 -0.34 11.9 0 0 Z " fill="#2965EB" transform="translate(622,69)"/>
<path d="M0 0 C7.92 0 15.84 0 24 0 C24 35.97 24 71.94 24 109 C16.08 109 8.16 109 0 109 C-0.33 107.02 -0.66 105.04 -1 103 C-2.051875 103.78375 -3.10375 104.5675 -4.1875 105.375 C-11.92653821 111.14134219 -20.73468453 110.98941636 -30 110 C-40.19494148 107.68883375 -49.04268473 101.09713055 -54.7265625 92.33984375 C-55.97578905 89.91809755 -57.04901499 87.55242731 -58 85 C-58.3609375 84.12085938 -58.721875 83.24171875 -59.09375 82.3359375 C-61.96129987 71.78038754 -61.51763527 58.26068272 -56.53515625 48.50390625 C-56.02855469 47.67761719 -55.52195312 46.85132813 -55 46 C-54.50371094 45.18402344 -54.00742188 44.36804688 -53.49609375 43.52734375 C-47.66611485 35.11250673 -38.11498969 28.86635724 -28 27 C-17.8353664 25.88147086 -9.21136172 27.84147871 -1 34 C-0.67 22.78 -0.34 11.56 0 0 Z " fill="#2664EB" transform="translate(1190,70)"/>
<path d="M0 0 C0.639375 0.598125 1.27875 1.19625 1.9375 1.8125 C2.2675 -0.1675 2.5975 -2.1475 2.9375 -4.1875 C11.1875 -4.1875 19.4375 -4.1875 27.9375 -4.1875 C27.9375 22.5425 27.9375 49.2725 27.9375 76.8125 C19.6875 76.8125 11.4375 76.8125 2.9375 76.8125 C2.6075 74.8325 2.2775 72.8525 1.9375 70.8125 C1.256875 71.410625 0.57625 72.00875 -0.125 72.625 C-6.04904283 77.03652125 -11.14262386 78.3538101 -18.375 78.25 C-19.12265625 78.24170166 -19.8703125 78.23340332 -20.640625 78.22485352 C-31.82307702 77.88448642 -40.16239761 73.01483481 -47.81640625 64.96875 C-56.17561655 54.74495395 -57.98330886 41.68927724 -57.27587891 28.87402344 C-56.20707898 18.54799756 -50.60129438 10.58028131 -43.0625 3.8125 C-30.8566892 -5.71833603 -13.3985351 -9.57038221 0 0 Z " fill="#2865EB" transform="translate(815.0625,102.1875)"/>
<path d="M0 0 C8.25 0 16.5 0 25 0 C25.33 17.16 25.66 34.32 26 52 C33.97686942 44.07479226 33.97686942 44.07479226 41.4296875 35.7890625 C41.94789063 35.19867188 42.46609375 34.60828125 43 34 C43.83023682 32.96673584 43.83023682 32.96673584 44.67724609 31.91259766 C47.8093042 29.33360426 49.71589588 29.53887537 53.734375 29.609375 C55.67763672 29.62871094 55.67763672 29.62871094 57.66015625 29.6484375 C59.02344824 29.68185634 60.38672949 29.71571609 61.75 29.75 C63.12888064 29.77007293 64.50778912 29.78832233 65.88671875 29.8046875 C69.25851744 29.85184552 72.62890687 29.91765462 76 30 C69.84005194 37.2907232 69.84005194 37.2907232 66.5625 40.4375 C64.14893446 42.80890719 61.88687577 45.24139875 59.6875 47.8125 C55.39196642 52.80434154 50.69639902 57.38864644 46 62 C47.65185806 65.91726339 50.30424285 68.89088006 53.0625 72.0625 C54.06455869 73.22981968 55.06585029 74.39779826 56.06640625 75.56640625 C56.56414551 76.14664551 57.06188477 76.72688477 57.57470703 77.32470703 C59.58525686 79.6879124 61.54414643 82.09143529 63.5 84.5 C65.91328923 87.46886661 68.34518106 90.41743298 70.828125 93.328125 C71.31345703 93.89724609 71.79878906 94.46636719 72.29882812 95.05273438 C73.23250101 96.1447421 74.168515 97.23475479 75.10742188 98.32226562 C78.3085491 102.06563431 81.1791998 105.96158821 84 110 C79.52223243 110.29272342 75.04694023 110.46874773 70.5625 110.625 C69.30244141 110.70878906 68.04238281 110.79257813 66.74414062 110.87890625 C57.48829631 111.1205732 57.48829631 111.1205732 53.24414062 107.92504883 C50.9519546 105.38940085 48.9552623 102.80096213 47 100 C46.14451418 98.96805088 45.27988723 97.94345579 44.3984375 96.93359375 C39.86438149 91.34042427 35.38530824 85.71077118 31 80 C28.3094472 81.22007944 28.3094472 81.22007944 26 83 C25.84174742 84.99782126 25.74880829 87.00088834 25.68359375 89.00390625 C25.64169922 90.21884766 25.59980469 91.43378906 25.55664062 92.68554688 C25.51732422 93.96494141 25.47800781 95.24433594 25.4375 96.5625 C25.39431641 97.84576172 25.35113281 99.12902344 25.30664062 100.45117188 C25.20015281 103.63397445 25.09953579 106.81697243 25 110 C16.75 110 8.5 110 0 110 C0 73.7 0 37.4 0 0 Z " fill="#2966EB" transform="translate(945,69)"/>
<path d="M0 0 C11.23445076 -0.43679824 21.17377682 3.53184756 29.64453125 10.8984375 C40.36404792 22.05880009 40.63671875 35.25845551 40.63671875 50.15234375 C22.15671875 50.15234375 3.67671875 50.15234375 -15.36328125 50.15234375 C-12.00030005 56.87830615 -9.37786851 59.78021192 -2.36328125 62.15234375 C4.63743274 62.91479775 10.81488982 62.21141568 17.3828125 59.7109375 C20.31587942 58.9840249 21.78111194 59.11394127 24.63671875 60.15234375 C26.72859506 61.96191557 28.5732923 63.70867941 30.44921875 65.71484375 C30.95130859 66.23498047 31.45339844 66.75511719 31.97070312 67.29101562 C33.20201002 68.56922945 34.42065945 69.85961522 35.63671875 71.15234375 C32.53244432 74.45582296 29.79645694 76.89155197 25.69921875 78.83984375 C24.88582031 79.23558594 24.07242187 79.63132812 23.234375 80.0390625 C11.81694636 84.9322462 -2.90528654 85.32945322 -14.67578125 81.08984375 C-20.20475954 78.52745825 -24.91764715 75.30941742 -29.36328125 71.15234375 C-29.92660156 70.63027344 -30.48992187 70.10820312 -31.0703125 69.5703125 C-39.51265061 60.78600626 -41.05789699 50.45023736 -40.88452148 38.74072266 C-40.41885375 26.98552941 -36.16592942 18.49379543 -27.51953125 10.43359375 C-19.20287085 3.75299769 -10.48944488 0.67617909 0 0 Z " fill="#2764EB" transform="translate(1078.36328125,96.84765625)"/>
<path d="M0 0 C8.5483861 6.36581944 12.52576842 13.58520821 15.38671875 23.77734375 C15.38671875 30.04734375 15.38671875 36.31734375 15.38671875 42.77734375 C-3.09328125 42.77734375 -21.57328125 42.77734375 -40.61328125 42.77734375 C-35.8839369 50.97302262 -35.8839369 50.97302262 -28.36328125 54.46484375 C-19.0695256 55.52095235 -11.43361732 53.71745577 -2.61328125 50.77734375 C-1.92621094 51.47601563 -1.23914063 52.1746875 -0.53125 52.89453125 C0.36980469 53.80460937 1.27085937 54.7146875 2.19921875 55.65234375 C3.09253906 56.55726563 3.98585938 57.4621875 4.90625 58.39453125 C7.34310208 60.87565889 7.34310208 60.87565889 10.38671875 62.77734375 C8.93472764 66.45096059 7.20047739 67.85847131 3.82421875 69.83984375 C3.01855469 70.32582031 2.21289062 70.81179687 1.3828125 71.3125 C-6.20864625 75.02409978 -12.98712206 76.33458485 -21.42578125 76.27734375 C-22.87827271 76.26985107 -22.87827271 76.26985107 -24.36010742 76.26220703 C-31.9857435 76.0766373 -38.0089665 74.74201927 -44.61328125 70.77734375 C-45.43957031 70.308125 -46.26585937 69.83890625 -47.1171875 69.35546875 C-57.33690143 63.09231623 -62.8215726 54.31244631 -65.61328125 42.77734375 C-67.00940367 30.75470258 -65.93341757 20.0012039 -58.59375 10.03515625 C-43.38521004 -7.91678059 -20.17622299 -12.95459216 0 0 Z " fill="#2664EB" transform="translate(444.61328125,104.22265625)"/>
<path d="M0 0 C10.17913133 -0.57285155 19.95871108 3.0849636 27.8125 9.56640625 C34.33433211 15.89422505 38.3258092 23.44776805 40.51953125 32.22265625 C40.51953125 38.16265625 40.51953125 44.10265625 40.51953125 50.22265625 C22.03953125 50.22265625 3.55953125 50.22265625 -15.48046875 50.22265625 C-12.09855719 56.98647937 -9.49856771 59.79690269 -2.48046875 62.22265625 C6.35814313 63.45862474 14.19407467 60.86042467 22.51953125 58.22265625 C26.80953125 62.51265625 31.09953125 66.80265625 35.51953125 71.22265625 C29.87194089 76.87024661 29.87194089 76.87024661 25.58203125 78.91015625 C24.76863281 79.30589844 23.95523438 79.70164062 23.1171875 80.109375 C12.5775226 84.62637424 -0.10821536 84.99169337 -11.2734375 82.3125 C-14.18390994 81.14153373 -16.79203026 79.83486857 -19.48046875 78.22265625 C-20.29515625 77.76503906 -21.10984375 77.30742187 -21.94921875 76.8359375 C-30.23547762 71.79513002 -36.09809314 65.05761478 -39.59765625 55.97265625 C-40.73880612 51.12529398 -40.98775709 46.50290185 -41.04296875 41.53515625 C-41.0577124 40.65641846 -41.07245605 39.77768066 -41.08764648 38.87231445 C-40.91718233 28.00650037 -35.81649978 19.82965761 -28.48046875 12.12109375 C-19.97140165 4.00709048 -11.38025742 1.02153492 0 0 Z " fill="#2664EB" transform="translate(510.48046875,96.77734375)"/>
<path d="M0 0 C22.77 0 45.54 0 69 0 C69 7.26 69 14.52 69 22 C54.81 22 40.62 22 26 22 C26 28.93 26 35.86 26 43 C37.88 43 49.76 43 62 43 C62 49.93 62 56.86 62 64 C50.12 64 38.24 64 26 64 C26 78.52 26 93.04 26 108 C17.42 108 8.84 108 0 108 C0 72.36 0 36.72 0 0 Z " fill="#2664EB" transform="translate(303,71)"/>
<path d="M0 0 C4.02947407 3.57564252 6.80619862 6.71542093 8 12 C5.26246389 13.40091134 2.50851493 14.76592679 -0.25 16.125 C-1.02730469 16.52332031 -1.80460938 16.92164062 -2.60546875 17.33203125 C-3.35957031 17.69941406 -4.11367188 18.06679687 -4.890625 18.4453125 C-5.58188477 18.79094238 -6.27314453 19.13657227 -6.98535156 19.49267578 C-9 20 -9 20 -11.10449219 19.19873047 C-12.56153878 18.2772855 -14.00307676 17.33128216 -15.4375 16.375 C-20.91115013 14.26236311 -26.20667146 14.33579673 -32 15 C-37.03359633 17.3843351 -40.49996787 20.99993573 -43 26 C-43.53494344 33.35547235 -43.55024582 39.46754769 -40 46 C-39.67 46.99 -39.34 47.98 -39 49 C-36.57616923 50.16953416 -36.57616923 50.16953416 -34 51 C-33.01 51.495 -33.01 51.495 -32 52 C-23.70376396 52.65638184 -17.9496063 52.58378288 -11 48 C-6.35343772 48.33071618 -2.31962468 50.56563592 1.8125 52.5625 C2.50537109 52.89185547 3.19824219 53.22121094 3.91210938 53.56054688 C5.61044948 54.36872251 7.30555769 55.18368377 9 56 C3.18562503 65.15177406 -3.59603261 70.81951256 -14 74 C-14.90105469 74.28617188 -14.90105469 74.28617188 -15.8203125 74.578125 C-28.58756991 77.04920708 -40.53499346 74.46784042 -51.29296875 67.28125 C-53.80132728 65.39854611 -55.90030919 63.32668441 -58 61 C-59.2684375 59.6696875 -59.2684375 59.6696875 -60.5625 58.3125 C-68.23833228 48.96590296 -68.81628263 36.52124633 -68 25 C-65.76548535 14.28509844 -58.95536335 5.18603412 -50 -1 C-33.38912771 -10.80313775 -16.33729584 -10.20521494 0 0 Z " fill="#2865EB" transform="translate(924,105)"/>
<path d="M0 0 C5.05130692 5.31034831 7.72493077 10.12614555 8 17.5625 C7.68117532 24.50579304 5.96112307 30.03887693 1 35 C-4.50958344 38.3595021 -9.14096224 39.4294076 -15.5625 38.5625 C-20.86634249 36.83501609 -24.53745581 34.33276199 -27.5625 29.5625 C-30.68761159 23.06226789 -31.0302181 14.84116035 -28.6875 8.01171875 C-22.68960901 -2.46486057 -10.81568155 -4.36422238 0 0 Z " fill="#FBFCFE" transform="translate(1183.5625,120.4375)"/>
<path d="M0 0 C4.75354579 1.5919543 7.91861124 4.28400445 10.5 8.5625 C13.27113081 15.07773644 12.98511918 22.75335003 10.875 29.4375 C8.73759203 34.28699638 5.24813311 36.72403256 0.6875 39.3125 C-5.59954406 40.9208136 -11.43914479 40.72587936 -17.13671875 37.4375 C-21.85758834 33.79540354 -24.60370997 29.70852774 -25.47265625 23.76953125 C-25.63804645 17.52065811 -25.36755792 12.32291413 -22 7 C-15.13935686 0.02818904 -9.77778601 -0.9834966 0 0 Z " fill="#FCFDFE" transform="translate(611,119)"/>
<path d="M0 0 C4.36163141 1.62214995 7.14708463 3.87195064 9.9375 7.5625 C12.88914547 14.33392196 13.14899209 22.33900095 10.875 29.375 C8.74679678 34.27388287 5.28698449 36.70198177 0.6875 39.3125 C-5.74056179 40.9568879 -11.37484262 40.61099147 -17.20703125 37.33984375 C-21.37889894 34.22230428 -24.07782085 30.1232175 -25 25 C-25.91907373 12.30971279 -25.91907373 12.30971279 -22 7 C-14.99752466 0.14340956 -9.88617873 -1.02788541 0 0 Z " fill="#FCFDFE" transform="translate(807,119)"/>
<path d="M0 0 C5.754375 -0.0928125 5.754375 -0.0928125 11.625 -0.1875 C13.42251709 -0.22846802 13.42251709 -0.22846802 15.25634766 -0.27026367 C21.94383068 -0.32248331 26.63834749 0.08656782 31.875 4.625 C34.17317705 9.4767071 33.53330668 14.40007995 31.875 19.375 C29.4432222 22.77948892 27.95906751 23.54072832 24 25 C19.8655484 25.35836338 15.77082917 25.28198945 11.625 25.1875 C7.78875 25.125625 3.9525 25.06375 0 25 C0 16.75 0 8.5 0 0 Z " fill="#FDFDFE" transform="translate(689,132)"/>
<path d="M0 0 C4.021875 -0.0928125 4.021875 -0.0928125 8.125 -0.1875 C8.95789551 -0.21481201 9.79079102 -0.24212402 10.64892578 -0.27026367 C15.5213819 -0.32432457 18.76336416 0.34083495 23 3 C25.37040308 5.37040308 25.34465793 6.06302753 25.4375 9.3125 C25.47746094 10.07175781 25.51742187 10.83101562 25.55859375 11.61328125 C24.66808947 15.41816319 23.16611175 16.73849161 20 19 C16.5382163 19.59711425 13.18698987 19.47325395 9.6875 19.3125 C8.75615234 19.28994141 7.82480469 19.26738281 6.86523438 19.24414062 C4.57612873 19.18544561 2.28785439 19.09577065 0 19 C0 12.73 0 6.46 0 0 Z " fill="#FBFCFE" transform="translate(689,92)"/>
<path d="M0 0 C4.01307806 2.31523734 6.36749616 5.67280098 7.828125 10.0546875 C-3.391875 10.0546875 -14.611875 10.0546875 -26.171875 10.0546875 C-23.85868593 4.27171483 -21.27274865 2.22529905 -16.296875 -1.2578125 C-10.7305936 -3.05866825 -5.28987101 -2.1867577 0 0 Z " fill="#FAFBFE" transform="translate(521.171875,119.9453125)"/>
<path d="M0 0 C3.49506725 1.91239529 5.77351487 3.75078264 8.3125 6.8125 C8.8075 8.7925 8.8075 8.7925 9.3125 10.8125 C-1.5775 10.8125 -12.4675 10.8125 -23.6875 10.8125 C-21.42551917 5.15754792 -21.42551917 5.15754792 -18.25 2.5625 C-17.65316406 2.06234375 -17.05632812 1.5621875 -16.44140625 1.046875 C-11.42200355 -2.48571131 -5.51349292 -1.77553162 0 0 Z " fill="#FAFCFE" transform="translate(1086.6875,119.1875)"/>
<path d="M0 0 C4.01307806 2.31523734 6.36749616 5.67280098 7.828125 10.0546875 C-3.391875 10.0546875 -14.611875 10.0546875 -26.171875 10.0546875 C-22.72743056 3.16579861 -22.72743056 3.16579861 -18.171875 0.0546875 C-17.57375 -0.3578125 -16.975625 -0.7703125 -16.359375 -1.1953125 C-10.80318712 -3.1002912 -5.30201034 -2.19177593 0 0 Z " fill="#FBFCFE" transform="translate(430.171875,119.9453125)"/>
</svg>
